<svg xmlns="http://www.w3.org/2000/svg">
<symbol id="splash" viewBox="0 0 1112 908">
    <path d="M5.2176 2.16369H33.0448C42.953 2.16369 50.9111 5.49244 56.9193 12.15C62.9274 18.6965 65.9315 27.5732 65.9315 38.78V90.3758C65.9315 101.583 62.9274 110.515 56.9193 117.172C50.9111 123.719 42.953 126.992 33.0448 126.992H5.2176L4.26895 125.994V3.16232L5.2176 2.16369ZM21.3447 20.139V109.017L22.2934 110.015H33.0448C37.8935 110.015 41.7408 108.296 44.5868 104.856C47.4327 101.416 48.8557 96.5895 48.8557 90.3758V38.78C48.8557 32.5663 47.4327 27.7397 44.5868 24.2999C41.7408 20.8602 37.8935 19.1404 33.0448 19.1404H22.2934L21.3447 20.139Z" />
    <path d="M77.2005 2.16369H92.3789L93.3276 3.16232V125.994L92.3789 126.992H77.2005L76.2518 125.994V3.16232L77.2005 2.16369Z" />
    <path d="M167.414 45.4376H152.236L151.287 44.4389V36.6163C151.287 30.4027 149.917 25.576 147.176 22.1362C144.436 18.6965 140.694 16.9767 135.95 16.9767C131.207 16.9767 127.465 18.6965 124.725 22.1362C121.984 25.576 120.614 30.4027 120.614 36.6163V92.8724C120.614 99.4189 122.037 104.301 124.883 107.519C127.729 110.626 131.365 112.179 135.792 112.179C140.641 112.179 144.488 110.515 147.334 107.186C150.18 103.857 151.603 99.086 151.603 92.8724V79.058L150.654 78.0594H137.848L136.899 77.0608V62.0813L137.848 61.0827H167.414L168.363 62.0813V125.994L167.414 126.992H155.556L154.607 125.994V117.505L153.342 117.172C151.867 120.834 149.284 123.774 145.595 125.994C141.906 128.102 137.584 129.156 132.63 129.156C123.881 129.156 116.819 125.827 111.443 119.17C106.173 112.401 103.538 103.635 103.538 92.8724V36.6163C103.538 25.4095 106.489 16.5328 112.392 9.98628C118.295 3.32876 126.148 0 135.95 0C145.753 0 153.606 3.32876 159.509 9.98628C165.411 16.5328 168.363 25.4095 168.363 36.6163V44.4389L167.414 45.4376Z" />
    <path d="M179.632 2.16369H194.81L195.759 3.16232V125.994L194.81 126.992H179.632L178.683 125.994V3.16232L179.632 2.16369Z" />
    <path d="M206.918 2.16369H305.894L306.843 3.16232V18.1417L305.894 19.1404H265.893L264.944 20.139V125.994L263.995 126.992H248.817L247.868 125.994V20.139L246.919 19.1404H206.918L205.969 18.1417V3.16232L206.918 2.16369Z" />
    <path d="M331.162 1.83081H343.811L344.917 2.49657L397.884 125.827L397.252 126.992H380.492L379.385 126.326L367.369 96.7004L366.262 96.0347H308.078L306.971 96.7004L294.797 126.326L293.69 126.992H277.089L276.456 125.827L330.055 2.49657L331.162 1.83081ZM336.696 24.9657L314.719 77.8929L315.351 79.058H358.989L359.622 77.8929L337.961 24.9657H336.696Z" />
    <path d="M404.845 2.16369H420.023L420.972 3.16232V109.017L421.92 110.015H458.918L459.866 111.014V125.994L458.918 126.992H404.845L403.896 125.994V3.16232L404.845 2.16369Z" />
    <path d="M515.422 2.16369H543.249C553.157 2.16369 561.116 5.49244 567.124 12.15C573.132 18.6965 576.136 27.5732 576.136 38.78V90.3758C576.136 101.583 573.132 110.515 567.124 117.172C561.116 123.719 553.157 126.992 543.249 126.992H515.422L514.473 125.994V3.16232L515.422 2.16369ZM531.549 20.139V109.017L532.498 110.015H543.249C548.098 110.015 551.945 108.296 554.791 104.856C557.637 101.416 559.06 96.5895 559.06 90.3758V38.78C559.06 32.5663 557.637 27.7397 554.791 24.2999C551.945 20.8602 548.098 19.1404 543.249 19.1404H532.498L531.549 20.139Z" />
    <path d="M587.405 2.16369H751.522L752.471 3.16232V18.1417L751.522 19.1404H604.481L603.532 20.139V54.2588L604.481 55.2574H722.746L723.695 56.256V71.2354L722.746 72.2341H604.481L603.532 73.2327V109.017L604.481 110.015H751.522L752.471 111.014V125.994L751.522 126.992H587.405L586.456 125.994V3.16232L587.405 2.16369Z" />
    <path d="M820.38 38.6136H805.201L804.253 37.615V33.2876C804.253 27.6287 803.146 23.5232 800.932 20.9712C798.719 18.3082 795.241 16.9767 790.497 16.9767C786.281 16.9767 783.066 18.3082 780.853 20.9712C778.639 23.5232 777.532 27.1294 777.532 31.7896V34.7855C777.532 40.2225 778.797 44.6054 781.327 47.9341C783.857 51.1519 788.073 53.5375 793.976 55.091C814.003 60.417 824.016 72.2895 824.016 90.7087V95.0361C824.016 105.022 821.223 113.233 815.637 119.669C810.05 125.994 802.092 129.156 791.762 129.156C781.327 129.156 773.211 125.994 767.413 119.669C761.721 113.344 758.875 105.022 758.875 94.7032V90.5422L759.824 89.5436H775.003L775.951 90.5422V94.7032C775.951 100.251 777.374 104.578 780.22 107.685C783.066 110.681 786.914 112.179 791.762 112.179C796.611 112.179 800.353 110.737 802.988 107.852C805.623 104.967 806.941 100.695 806.941 95.0361V92.7059C806.941 87.269 805.676 83.0525 803.146 80.0566C800.616 76.9498 796.347 74.6197 790.339 73.0663C770.417 68.1841 760.457 55.8677 760.457 36.117V31.9561C760.457 22.7465 763.144 15.1458 768.52 9.15409C774.001 3.05136 781.327 0 790.497 0C800.616 0 808.258 3.05136 813.423 9.15409C818.693 15.1458 821.329 23.1903 821.329 33.2876V37.615L820.38 38.6136Z" />
    <path d="M831.362 2.16369H846.541L847.489 3.16232V125.994L846.541 126.992H831.362L830.414 125.994V3.16232L831.362 2.16369Z" />
    <path d="M923.157 45.4376H907.979L907.03 44.4389V36.6163C907.03 30.4027 905.66 25.576 902.919 22.1362C900.179 18.6965 896.437 16.9767 891.693 16.9767C886.95 16.9767 883.208 18.6965 880.468 22.1362C877.727 25.576 876.357 30.4027 876.357 36.6163V92.8724C876.357 99.4189 877.78 104.301 880.626 107.519C883.472 110.626 887.108 112.179 891.535 112.179C896.384 112.179 900.231 110.515 903.077 107.186C905.923 103.857 907.346 99.086 907.346 92.8724V79.058L906.397 78.0594H893.591L892.642 77.0608V62.0813L893.591 61.0827H923.157L924.106 62.0813V125.994L923.157 126.992H911.299L910.35 125.994V117.505L909.085 117.172C907.61 120.834 905.027 123.774 901.338 125.994C897.649 128.102 893.327 129.156 888.373 129.156C879.624 129.156 872.562 125.827 867.186 119.17C861.916 112.401 859.281 103.635 859.281 92.8724V36.6163C859.281 25.4095 862.232 16.5328 868.135 9.98628C874.038 3.32876 881.891 0 891.693 0C901.496 0 909.349 3.32876 915.252 9.98628C921.154 16.5328 924.106 25.4095 924.106 36.6163V44.4389L923.157 45.4376Z" />
    <path d="M986.918 2.16369H1001.46L1002.41 3.16232V125.994L1001.46 126.992H983.44L982.333 126.16L953.715 41.9424L952.45 42.2752V125.994L951.502 126.992H936.956L936.007 125.994V3.16232L936.956 2.16369H954.98L956.087 2.99587L984.705 87.2135L985.969 86.8806V3.16232L986.918 2.16369Z" />
    <path d="M54.7057 157.6H67.3545L68.4612 158.265L121.428 281.596L120.795 282.761H104.036L102.929 282.095L90.9127 252.469L89.806 251.804H31.6218L30.5151 252.469L18.3407 282.095L17.2339 282.761H0.632436L0 281.596L53.599 158.265L54.7057 157.6ZM60.2396 180.735L38.2624 233.662L38.8948 234.827H82.533L83.1654 233.662L61.5044 180.735H60.2396Z" />
    <path d="M188.154 201.206H172.975L172.026 200.208V192.385C172.026 186.171 170.656 181.345 167.916 177.905C165.175 174.465 161.433 172.745 156.69 172.745C151.947 172.745 148.205 174.465 145.464 177.905C142.724 181.345 141.353 186.171 141.353 192.385V248.641C141.353 255.188 142.776 260.07 145.622 263.288C148.468 266.395 152.105 267.948 156.532 267.948C161.38 267.948 165.228 266.284 168.074 262.955C170.92 259.626 172.343 254.855 172.343 248.641V234.827L171.394 233.828H158.587L157.638 232.83V217.85L158.587 216.852H188.154L189.102 217.85V281.762L188.154 282.761H176.295L175.347 281.762V273.274L174.082 272.941C172.606 276.603 170.024 279.543 166.334 281.762C162.645 283.871 158.324 284.925 153.37 284.925C144.621 284.925 137.559 281.596 132.183 274.938C126.913 268.17 124.277 259.404 124.277 248.641V192.385C124.277 181.178 127.229 172.302 133.132 165.755C139.034 159.098 146.887 155.769 156.69 155.769C166.493 155.769 174.345 159.098 180.248 165.755C186.151 172.302 189.102 181.178 189.102 192.385V200.208L188.154 201.206Z" />
    <path d="M201.952 157.933H366.069L367.018 158.931V173.911L366.069 174.909H219.028L218.079 175.908V210.028L219.028 211.026H337.294L338.242 212.025V227.004L337.294 228.003H219.028L218.079 229.002V264.786L219.028 265.784H366.069L367.018 266.783V281.762L366.069 282.761H201.952L201.004 281.762V158.931L201.952 157.933Z" />
    <path d="M429.794 157.933H444.34L445.288 158.931V281.762L444.34 282.761H426.315L425.208 281.929L396.591 197.711L395.326 198.044V281.762L394.377 282.761H379.831L378.883 281.762V158.931L379.831 157.933H397.856L398.962 158.765L427.58 242.982L428.845 242.649V158.931L429.794 157.933Z" />
    <path d="M570.049 204.702H554.87L553.922 203.869C551.708 193.994 547.176 186.338 540.324 180.901C533.578 175.464 524.882 172.745 514.236 172.745C501.271 172.745 491.1 177.184 483.721 186.061C476.343 194.826 472.654 206.255 472.654 220.347C472.654 234.438 476.343 245.923 483.721 254.799C491.1 263.565 501.271 267.948 514.236 267.948C524.882 267.948 533.578 265.23 540.324 259.793C547.176 254.356 551.708 246.699 553.922 236.824L554.87 235.992H570.049L570.839 236.991C568.31 251.748 561.985 263.454 551.866 272.109C541.853 280.653 529.309 284.925 514.236 284.925C496.633 284.925 482.456 278.822 471.705 266.616C460.953 254.3 455.578 238.877 455.578 220.347C455.578 201.817 460.953 186.449 471.705 174.243C482.456 161.927 496.633 155.769 514.236 155.769C529.309 155.769 541.853 160.096 551.866 168.751C561.985 177.295 568.31 188.945 570.839 203.703L570.049 204.702Z" />
    <path d="M563.505 157.933H582.952L584.059 158.598L618.843 226.671H620.108L655.208 158.598L656.315 157.933H675.446L676.078 159.098L628.013 246.145V281.762L627.064 282.761H611.886L610.937 281.762V246.145L562.872 159.098L563.505 157.933Z" />
    <path d="M701.488 157.933H718.722L719.829 158.765L749.237 255.299H750.502L780.701 158.765L781.807 157.933H791.927L793.033 158.765L823.232 255.299H824.497L853.905 158.765L855.012 157.933H872.246L873.036 159.098L832.719 282.262L831.612 283.094H816.275L815.169 282.262L787.499 193.883H786.235L758.565 282.262L757.459 283.094H742.122L741.015 282.262L700.698 159.098L701.488 157.933Z" />
    <path d="M879.888 157.933H895.067L896.015 158.931V281.762L895.067 282.761H879.888L878.94 281.762V158.931L879.888 157.933Z" />
    <path d="M904.012 157.933H1002.99L1003.94 158.931V173.911L1002.99 174.909H962.987L962.038 175.908V281.762L961.09 282.761H945.911L944.963 281.762V175.908L944.014 174.909H904.012L903.064 173.911V158.931L904.012 157.933Z" />
    <path d="M1011.97 157.933H1027.15L1028.1 158.931V210.527L1029.05 211.526H1093.87L1094.82 210.527V158.931L1095.77 157.933H1110.95L1111.9 158.931V281.762L1110.95 282.761H1095.77L1094.82 281.762V229.501L1093.87 228.502H1029.05L1028.1 229.501V281.762L1027.15 282.761H1011.97L1011.02 281.762V158.931L1011.97 157.933Z" />
    <path d="M341.193 313.701H476.38L477.328 314.7V329.679L476.38 330.678H358.269L357.32 331.677V367.461L358.269 368.459H456.142L457.09 369.458V384.437L456.142 385.436H358.269L357.32 386.435V437.531L356.371 438.53H341.193L340.244 437.531V314.7L341.193 313.701Z" />
    <path d="M546.455 348.154V404.077C546.455 415.284 543.451 424.216 537.443 430.874C531.54 437.42 523.688 440.693 513.885 440.693C504.082 440.693 496.177 437.42 490.168 430.874C484.266 424.216 481.314 415.284 481.314 404.077V348.154C481.314 336.947 484.266 328.07 490.168 321.524C496.177 314.866 504.082 311.538 513.885 311.538C523.688 311.538 531.54 314.866 537.443 321.524C543.451 328.07 546.455 336.947 546.455 348.154ZM498.39 348.154V404.077C498.39 410.291 499.76 415.118 502.501 418.557C505.241 421.997 509.036 423.717 513.885 423.717C518.733 423.717 522.528 421.997 525.269 418.557C528.009 415.118 529.379 410.291 529.379 404.077V348.154C529.379 341.94 528.009 337.114 525.269 333.674C522.528 330.234 518.733 328.514 513.885 328.514C509.036 328.514 505.241 330.234 502.501 333.674C499.76 337.114 498.39 341.94 498.39 348.154Z" />
    <path d="M668.077 360.47H652.898L651.95 359.638C649.736 349.763 645.204 342.107 638.352 336.67C631.606 331.233 622.91 328.514 612.264 328.514C599.299 328.514 589.128 332.953 581.749 341.829C574.371 350.595 570.682 362.024 570.682 376.116C570.682 390.207 574.371 401.692 581.749 410.568C589.128 419.334 599.299 423.717 612.264 423.717C622.91 423.717 631.606 420.998 638.352 415.561C645.204 410.124 649.736 402.468 651.95 392.593L652.898 391.761H668.077L668.867 392.759C666.338 407.517 660.013 419.223 649.894 427.878C639.881 436.422 627.337 440.693 612.264 440.693C594.662 440.693 580.484 434.591 569.733 422.385C558.982 410.069 553.606 394.646 553.606 376.116C553.606 357.585 558.982 342.218 569.733 330.012C580.484 317.696 594.662 311.538 612.264 311.538C627.337 311.538 639.881 315.865 649.894 324.52C660.013 333.064 666.338 344.714 668.867 359.472L668.077 360.47Z" />
    <path d="M676.237 313.701H691.415L692.364 314.7V401.081C692.364 416.172 697.265 423.717 707.068 423.717C716.871 423.717 721.772 416.172 721.772 401.081V314.7L722.721 313.701H737.899L738.848 314.7V401.081C738.848 413.065 736.213 422.663 730.943 429.875C725.672 437.087 717.714 440.693 707.068 440.693C696.317 440.693 688.306 437.143 683.036 430.041C677.871 422.94 675.288 413.287 675.288 401.081V314.7L676.237 313.701Z" />
    <path d="M805.848 350.151H790.669L789.721 349.153V344.825C789.721 339.166 788.614 335.061 786.401 332.509C784.187 329.846 780.709 328.514 775.965 328.514C771.749 328.514 768.534 329.846 766.321 332.509C764.107 335.061 763 338.667 763 343.327V346.323C763 351.76 764.265 356.143 766.795 359.472C769.325 362.69 773.541 365.075 779.444 366.629C799.471 371.955 809.484 383.827 809.484 402.246V406.574C809.484 416.56 806.691 424.771 801.105 431.207C795.518 437.531 787.56 440.693 777.23 440.693C766.795 440.693 758.679 437.531 752.881 431.207C747.189 424.882 744.344 416.56 744.344 406.241V402.08L745.292 401.081H760.471L761.419 402.08V406.241C761.419 411.789 762.842 416.116 765.688 419.223C768.534 422.219 772.382 423.717 777.23 423.717C782.079 423.717 785.821 422.274 788.456 419.389C791.091 416.505 792.409 412.233 792.409 406.574V404.244C792.409 398.807 791.144 394.59 788.614 391.594C786.084 388.487 781.815 386.157 775.807 384.604C755.885 379.722 745.925 367.405 745.925 347.655V343.494C745.925 334.284 748.612 326.684 753.988 320.692C759.469 314.589 766.795 311.538 775.965 311.538C786.084 311.538 793.726 314.589 798.891 320.692C804.161 326.684 806.797 334.728 806.797 344.825V349.153L805.848 350.151Z" />
    <path d="M926.874 348.154V404.077C926.874 415.284 923.87 424.216 917.862 430.874C911.959 437.42 904.107 440.693 894.304 440.693C884.501 440.693 876.596 437.42 870.587 430.874C864.685 424.216 861.733 415.284 861.733 404.077V348.154C861.733 336.947 864.685 328.07 870.587 321.524C876.596 314.866 884.501 311.538 894.304 311.538C904.107 311.538 911.959 314.866 917.862 321.524C923.87 328.07 926.874 336.947 926.874 348.154ZM878.809 348.154V404.077C878.809 410.291 880.179 415.118 882.92 418.557C885.661 421.997 889.455 423.717 894.304 423.717C899.153 423.717 902.947 421.997 905.688 418.557C908.428 415.118 909.799 410.291 909.799 404.077V348.154C909.799 341.94 908.428 337.114 905.688 333.674C902.947 330.234 899.153 328.514 894.304 328.514C889.455 328.514 885.661 330.234 882.92 333.674C880.179 337.114 878.809 341.94 878.809 348.154Z" />
    <path d="M984.936 313.701H999.482L1000.43 314.7V437.531L999.482 438.53H981.458L980.351 437.698L951.733 353.48L950.468 353.813V437.531L949.52 438.53H934.974L934.025 437.531V314.7L934.974 313.701H952.998L954.105 314.534L982.723 398.751L983.987 398.418V314.7L984.936 313.701Z" />
    <path d="M115.578 516.239H100.399L99.4506 515.407C97.2371 505.532 92.7046 497.876 85.8532 492.439C79.1073 487.002 70.4112 484.283 59.7652 484.283C46.8003 484.283 36.6286 488.722 29.2502 497.598C21.8718 506.364 18.1825 517.793 18.1825 531.884C18.1825 545.976 21.8718 557.46 29.2502 566.337C36.6286 575.103 46.8003 579.486 59.7652 579.486C70.4112 579.486 79.1073 576.767 85.8532 571.33C92.7046 565.893 97.2371 558.237 99.4506 548.362L100.399 547.53H115.578L116.368 548.528C113.839 563.286 107.514 574.992 97.3952 583.647C87.3816 592.19 74.8383 596.462 59.7652 596.462C42.1624 596.462 27.9853 590.36 17.2339 578.154C6.48247 565.838 1.10676 550.414 1.10676 531.884C1.10676 513.354 6.48247 497.987 17.2339 485.781C27.9853 473.465 42.1624 467.306 59.7652 467.306C74.8383 467.306 87.3816 471.634 97.3952 480.289C107.514 488.832 113.839 500.483 116.368 515.241L115.578 516.239Z" />
    <path d="M189.511 503.923V559.846C189.511 571.053 186.507 579.985 180.499 586.643C174.596 593.189 166.743 596.462 156.941 596.462C147.138 596.462 139.232 593.189 133.224 586.643C127.321 579.985 124.37 571.053 124.37 559.846V503.923C124.37 492.716 127.321 483.839 133.224 477.293C139.232 470.635 147.138 467.306 156.941 467.306C166.743 467.306 174.596 470.635 180.499 477.293C186.507 483.839 189.511 492.716 189.511 503.923ZM141.446 503.923V559.846C141.446 566.06 142.816 570.886 145.557 574.326C148.297 577.766 152.092 579.486 156.941 579.486C161.789 579.486 165.584 577.766 168.324 574.326C171.065 570.886 172.435 566.06 172.435 559.846V503.923C172.435 497.709 171.065 492.882 168.324 489.443C165.584 486.003 161.789 484.283 156.941 484.283C152.092 484.283 148.297 486.003 145.557 489.443C142.816 492.882 141.446 497.709 141.446 503.923Z" />
    <path d="M200.773 469.47H219.429L220.536 469.97L311.449 576.157H400.197L491.109 469.97L492.216 469.47H510.873L511.822 470.469V593.3L510.873 594.299H496.011L495.062 593.3V491.274L493.797 490.774L405.73 593.799L404.624 594.299H307.022L305.915 593.799L217.848 490.774L216.584 491.274V593.3L215.635 594.299H200.773L199.824 593.3V470.469L200.773 469.47Z" />
    <path d="M539.996 487.445V544.7L540.945 545.699H550.115C555.912 545.699 560.234 544.201 563.08 541.205C565.926 538.209 567.349 533.382 567.349 526.725V505.421C567.349 498.763 565.926 493.937 563.08 490.941C560.234 487.945 555.912 486.447 550.115 486.447H540.945L539.996 487.445ZM523.869 469.47H550.115C561.393 469.47 569.931 472.577 575.729 478.791C581.526 484.893 584.424 493.77 584.424 505.421V526.725C584.424 538.375 581.526 547.308 575.729 553.521C569.931 559.624 561.393 562.675 550.115 562.675H540.945L539.996 563.674V593.3L539.047 594.299H523.869L522.92 593.3V470.469L523.869 469.47Z" />
    <path d="M594.789 469.47H609.968L610.916 470.469V576.323L611.865 577.322H648.863L649.811 578.321V593.3L648.863 594.299H594.789L593.841 593.3V470.469L594.789 469.47Z" />
    <path d="M660.306 469.47H824.423L825.372 470.469V485.448L824.423 486.447H677.382L676.433 487.445V521.565L677.382 522.564H795.647L796.596 523.562V538.542L795.647 539.541H677.382L676.433 540.539V576.323L677.382 577.322H824.423L825.372 578.321V593.3L824.423 594.299H660.306L659.357 593.3V470.469L660.306 469.47Z" />
    <path d="M836.604 469.47H935.58L936.529 470.469V485.448L935.58 486.447H895.578L894.63 487.445V593.3L893.681 594.299H878.502L877.554 593.3V487.445L876.605 486.447H836.604L835.655 485.448V470.469L836.604 469.47Z" />
    <path d="M946.934 469.47H1111.05L1112 470.469V485.448L1111.05 486.447H964.01L963.061 487.445V521.565L964.01 522.564H1082.28L1083.22 523.562V538.542L1082.28 539.541H964.01L963.061 540.539V576.323L964.01 577.322H1111.05L1112 578.321V593.3L1111.05 594.299H946.934L945.985 593.3V470.469L946.934 469.47Z" />
    <path d="M21.3447 643.214V700.469L22.2934 701.468H31.4637C37.261 701.468 41.5827 699.97 44.4287 696.974C47.2746 693.978 48.6976 689.151 48.6976 682.494V661.19C48.6976 654.532 47.2746 649.705 44.4287 646.709C41.5827 643.714 37.261 642.216 31.4637 642.216H22.2934L21.3447 643.214ZM5.2176 625.239H31.4637C42.7422 625.239 51.2801 628.346 57.0774 634.56C62.8747 640.662 65.7734 649.539 65.7734 661.19V682.494C65.7734 694.144 62.8747 703.076 57.0774 709.29C51.2801 715.393 42.7422 718.444 31.4637 718.444H22.2934L21.3447 719.443V749.069L20.3961 750.068H5.2176L4.26895 749.069V626.238L5.2176 625.239Z" />
    <path d="M75.3476 625.239H101.436C112.609 625.239 121.147 628.512 127.049 635.059C133.057 641.494 136.062 650.482 136.062 662.022V672.341C136.062 686.211 131.634 696.086 122.78 701.967L122.464 703.298L138.749 748.902L138.117 750.068H120.883L119.776 749.235L106.969 709.956L105.863 709.124H92.4234L91.4748 710.122V749.069L90.5261 750.068H75.3476L74.399 749.069V626.238L75.3476 625.239ZM91.4748 643.214V691.148L92.4234 692.147H101.436C113.136 692.147 118.986 685.545 118.986 672.341V662.022C118.986 655.697 117.457 650.815 114.401 647.375C111.449 643.936 107.128 642.216 101.436 642.216H92.4234L91.4748 643.214Z" />
    <path d="M207.589 659.692V715.615C207.589 726.822 204.585 735.754 198.576 742.411C192.674 748.958 184.821 752.231 175.018 752.231C165.215 752.231 157.31 748.958 151.302 742.411C145.399 735.754 142.448 726.822 142.448 715.615V659.692C142.448 648.485 145.399 639.608 151.302 633.062C157.31 626.404 165.215 623.075 175.018 623.075C184.821 623.075 192.674 626.404 198.576 633.062C204.585 639.608 207.589 648.485 207.589 659.692ZM159.523 659.692V715.615C159.523 721.829 160.894 726.655 163.634 730.095C166.375 733.535 170.169 735.254 175.018 735.254C179.867 735.254 183.661 733.535 186.402 730.095C189.143 726.655 190.513 721.829 190.513 715.615V659.692C190.513 653.478 189.143 648.651 186.402 645.212C183.661 641.772 179.867 640.052 175.018 640.052C170.169 640.052 166.375 641.772 163.634 645.212C160.894 648.651 159.523 653.478 159.523 659.692Z" />
    <path d="M218.85 625.239H246.677C256.586 625.239 264.544 628.568 270.552 635.225C276.56 641.772 279.564 650.648 279.564 661.855V713.451C279.564 724.658 276.56 733.59 270.552 740.248C264.544 746.794 256.586 750.068 246.677 750.068H218.85L217.902 749.069V626.238L218.85 625.239ZM234.977 643.214V732.092L235.926 733.091H246.677C251.526 733.091 255.373 731.371 258.219 727.931C261.065 724.492 262.488 719.665 262.488 713.451V661.855C262.488 655.642 261.065 650.815 258.219 647.375C255.373 643.936 251.526 642.216 246.677 642.216H235.926L234.977 643.214Z" />
    <path d="M290.043 625.239H305.221L306.17 626.238V712.619C306.17 727.709 311.071 735.254 320.874 735.254C330.677 735.254 335.578 727.709 335.578 712.619V626.238L336.527 625.239H351.705L352.654 626.238V712.619C352.654 724.602 350.019 734.2 344.748 741.413C339.478 748.625 331.52 752.231 320.874 752.231C310.122 752.231 302.111 748.681 296.841 741.579C291.676 734.478 289.094 724.824 289.094 712.619V626.238L290.043 625.239Z" />
    <path d="M476.573 672.008H461.394L460.446 671.176C458.232 661.301 453.7 653.644 446.848 648.207C440.102 642.77 431.406 640.052 420.76 640.052C407.796 640.052 397.624 644.49 390.245 653.367C382.867 662.133 379.178 673.562 379.178 687.653C379.178 701.745 382.867 713.229 390.245 722.106C397.624 730.872 407.796 735.254 420.76 735.254C431.406 735.254 440.102 732.536 446.848 727.099C453.7 721.662 458.232 714.006 460.446 704.131L461.394 703.298H476.573L477.363 704.297C474.834 719.055 468.509 730.761 458.39 739.415C448.377 747.959 435.833 752.231 420.76 752.231C403.158 752.231 388.98 746.128 378.229 733.923C367.478 721.607 362.102 706.183 362.102 687.653C362.102 669.123 367.478 653.755 378.229 641.55C388.98 629.234 403.158 623.075 420.76 623.075C435.833 623.075 448.377 627.403 458.39 636.057C468.509 644.601 474.834 656.252 477.363 671.009L476.573 672.008Z" />
    <path d="M477.575 625.239H576.551L577.5 626.238V641.217L576.551 642.216H536.549L535.601 643.214V749.069L534.652 750.068H519.474L518.525 749.069V643.214L517.576 642.216H477.575L476.626 641.217V626.238L477.575 625.239Z" />
    <path d="M362.775 798.983V856.238L363.723 857.236H372.894C378.691 857.236 383.013 855.738 385.859 852.743C388.705 849.747 390.128 844.92 390.128 838.263V816.958C390.128 810.301 388.705 805.474 385.859 802.478C383.013 799.482 378.691 797.984 372.894 797.984H363.723L362.775 798.983ZM346.648 781.008H372.894C384.172 781.008 392.71 784.115 398.507 790.328C404.305 796.431 407.203 805.308 407.203 816.958V838.263C407.203 849.913 404.305 858.845 398.507 865.059C392.71 871.162 384.172 874.213 372.894 874.213H363.723L362.775 875.212V904.838L361.826 905.836H346.648L345.699 904.838V782.006L346.648 781.008Z" />
    <path d="M450.455 780.675H463.104L464.21 781.341L517.177 904.671L516.544 905.836H499.785L498.678 905.171L486.662 875.545L485.555 874.879H427.371L426.264 875.545L414.09 905.171L412.983 905.836H396.382L395.749 904.671L449.348 781.341L450.455 780.675ZM455.989 803.81L434.012 856.737L434.644 857.902H478.282L478.915 856.737L457.254 803.81H455.989Z" />
    <path d="M625.011 827.777H609.833L608.884 826.945C606.67 817.069 602.138 809.413 595.287 803.976C588.541 798.539 579.845 795.821 569.199 795.821C556.234 795.821 546.062 800.259 538.684 809.136C531.305 817.902 527.616 829.33 527.616 843.422C527.616 857.514 531.305 868.998 538.684 877.875C546.062 886.641 556.234 891.023 569.199 891.023C579.845 891.023 588.541 888.305 595.287 882.868C602.138 877.431 606.67 869.775 608.884 859.899L609.833 859.067H625.011L625.802 860.066C623.272 874.823 616.948 886.529 606.829 895.184C596.815 903.728 584.272 908 569.199 908C551.596 908 537.419 901.897 526.667 889.692C515.916 877.375 510.54 861.952 510.54 843.422C510.54 824.892 515.916 809.524 526.667 797.319C537.419 785.002 551.596 778.844 569.199 778.844C584.272 778.844 596.815 783.172 606.829 791.826C616.948 800.37 623.272 812.021 625.802 826.778L625.011 827.777Z" />
    <path d="M634.752 781.008H649.931L650.879 782.006V833.602L651.828 834.601H690.723L691.829 833.935L718.392 781.674L719.498 781.008H736.891L737.523 782.173L706.692 841.758V843.089L739.104 904.671L738.472 905.836H720.447L719.34 905.171L692.146 852.243L691.039 851.578H651.828L650.879 852.576V904.838L649.931 905.836H634.752L633.803 904.838V782.006L634.752 781.008Z" />
    <path d="M794.91 780.675H807.559L808.666 781.341L861.632 904.671L861 905.836H844.24L843.134 905.171L831.117 875.545L830.011 874.879H771.827L770.72 875.545L758.545 905.171L757.439 905.836H740.837L740.205 904.671L793.804 781.341L794.91 780.675ZM800.444 803.81L778.467 856.737L779.099 857.902H822.738L823.37 856.737L801.709 803.81H800.444Z" />
    <path d="M925.442 824.282H910.264L909.315 823.283V815.46C909.315 809.247 907.945 804.42 905.204 800.98C902.464 797.541 898.722 795.821 893.979 795.821C889.235 795.821 885.493 797.541 882.753 800.98C880.012 804.42 878.642 809.247 878.642 815.46V871.716C878.642 878.263 880.065 883.145 882.911 886.363C885.757 889.47 889.393 891.023 893.82 891.023C898.669 891.023 902.517 889.359 905.362 886.03C908.208 882.701 909.631 877.93 909.631 871.716V857.902L908.683 856.904H895.876L894.927 855.905V840.925L895.876 839.927H925.442L926.391 840.925V904.838L925.442 905.836H913.584L912.635 904.838V896.349L911.371 896.016C909.895 899.678 907.312 902.618 903.623 904.838C899.934 906.946 895.612 908 890.658 908C881.91 908 874.847 904.671 869.472 898.014C864.201 891.245 861.566 882.479 861.566 871.716V815.46C861.566 804.254 864.518 795.377 870.42 788.83C876.323 782.173 884.176 778.844 893.979 778.844C903.781 778.844 911.634 782.173 917.537 788.83C923.44 795.377 926.391 804.254 926.391 815.46V823.283L925.442 824.282Z" />
    <path d="M938.451 781.008H953.629L954.578 782.006V904.838L953.629 905.836H938.451L937.502 904.838V782.006L938.451 781.008Z" />
    <path d="M1019.65 781.008H1034.2L1035.15 782.006V904.838L1034.2 905.836H1016.17L1015.07 905.004L986.449 820.787L985.184 821.119V904.838L984.235 905.836H969.689L968.741 904.838V782.006L969.689 781.008H987.714L988.821 781.84L1017.44 866.058L1018.7 865.725V782.006L1019.65 781.008Z" />
    <path d="M1110.1 824.282H1094.92L1093.98 823.283V815.46C1093.98 809.247 1092.61 804.42 1089.86 800.98C1087.12 797.541 1083.38 795.821 1078.64 795.821C1073.9 795.821 1070.15 797.541 1067.41 800.98C1064.67 804.42 1063.3 809.247 1063.3 815.46V871.716C1063.3 878.263 1064.73 883.145 1067.57 886.363C1070.42 889.47 1074.05 891.023 1078.48 891.023C1083.33 891.023 1087.18 889.359 1090.02 886.03C1092.87 882.701 1094.29 877.93 1094.29 871.716V857.902L1093.34 856.904H1080.54L1079.59 855.905V840.925L1080.54 839.927H1110.1L1111.05 840.925V904.838L1110.1 905.836H1098.24L1097.3 904.838V896.349L1096.03 896.016C1094.56 899.678 1091.97 902.618 1088.28 904.838C1084.59 906.946 1080.27 908 1075.32 908C1066.57 908 1059.51 904.671 1054.13 898.014C1048.86 891.245 1046.23 882.479 1046.23 871.716V815.46C1046.23 804.254 1049.18 795.377 1055.08 788.83C1060.98 782.173 1068.84 778.844 1078.64 778.844C1088.44 778.844 1096.29 782.173 1102.2 788.83C1108.1 795.377 1111.05 804.254 1111.05 815.46V823.283L1110.1 824.282Z" />
</symbol>
<symbol id="gear" viewBox="0 0 232 232">
    <path d="M215.998 93.2077C236.065 101.795 236.065 130.243 215.998 138.83C203.606 144.132 197.714 158.357 202.727 170.868C210.845 191.13 190.729 211.246 170.467 203.128C157.956 198.115 143.731 204.007 138.429 216.399C129.841 236.466 101.394 236.466 92.8066 216.399C87.5042 204.007 73.2793 198.115 60.7679 203.128C40.5061 211.246 20.3905 191.13 28.5083 170.868C33.5209 158.357 27.6288 144.132 15.2374 138.83C-4.83002 130.243 -4.83002 101.795 15.2375 93.2077C27.6288 87.9052 33.5209 73.6804 28.5083 61.169C20.3905 40.9071 40.5061 20.7915 60.7679 28.9094C73.2793 33.922 87.5042 28.0299 92.8066 15.6385C101.394 -4.42895 129.841 -4.42895 138.429 15.6385C143.731 28.0299 157.956 33.922 170.467 28.9094C190.729 20.7915 210.845 40.9071 202.727 61.169C197.714 73.6804 203.606 87.9052 215.998 93.2077Z" />
</symbol>

<symbol id="instagram" viewBox="0 0 47 46">
    <path fill-rule="evenodd" clip-rule="evenodd" d="M13.9625 0.326234C16.3848 0.214722 17.1571 0.189941 23.3275 0.189941C29.4978 0.189941 30.2702 0.216787 32.6904 0.326234C35.1106 0.435682 36.7627 0.821845 38.2082 1.38147C39.7219 1.95349 41.0951 2.84765 42.2309 4.00408C43.3873 5.13779 44.2794 6.50898 44.8494 8.02472C45.4111 9.47025 45.7952 11.1223 45.9067 13.5384C46.0182 15.9648 46.043 16.7371 46.043 22.9054C46.043 29.0758 46.0161 29.8481 45.9067 32.2704C45.7972 34.6865 45.4111 36.3385 44.8494 37.7841C44.2794 39.3 43.3858 40.6735 42.2309 41.8088C41.0951 42.9653 39.7219 43.8574 38.2082 44.4273C36.7627 44.989 35.1106 45.3731 32.6945 45.4846C30.2702 45.5961 29.4978 45.6209 23.3275 45.6209C17.1571 45.6209 16.3848 45.5941 13.9625 45.4846C11.5464 45.3752 9.89437 44.989 8.44884 44.4273C6.93294 43.8573 5.55948 42.9637 4.42407 41.8088C3.26843 40.6745 2.37413 39.3017 1.80353 37.7861C1.2439 36.3406 0.859805 34.6886 0.748292 32.2725C0.63678 29.846 0.612 29.0737 0.612 22.9054C0.612 16.7351 0.638845 15.9628 0.748292 13.5425C0.85774 11.1223 1.2439 9.47025 1.80353 8.02472C2.37498 6.50915 3.26996 5.13637 4.42614 4.00201C5.55993 2.84662 6.93201 1.95234 8.44678 1.38147C9.89231 0.821845 11.5443 0.437747 13.9604 0.326234H13.9625ZM32.5066 4.41502C30.1112 4.30558 29.3925 4.28286 23.3275 4.28286C17.2625 4.28286 16.5438 4.30558 14.1484 4.41502C11.9326 4.51621 10.7307 4.88585 9.92948 5.19767C8.87011 5.61068 8.11224 6.1001 7.3172 6.89514C6.56355 7.62834 5.98355 8.52091 5.61973 9.50742C5.30791 10.3087 4.93827 11.5105 4.83708 13.7263C4.72763 16.1218 4.70492 16.8404 4.70492 22.9054C4.70492 28.9705 4.72763 29.6891 4.83708 32.0846C4.93827 34.3003 5.30791 35.5022 5.61973 36.3034C5.98318 37.2885 6.56346 38.1826 7.3172 38.9157C8.05029 39.6695 8.94446 40.2497 9.92948 40.6132C10.7307 40.925 11.9326 41.2947 14.1484 41.3958C16.5438 41.5053 17.2604 41.528 23.3275 41.528C29.3946 41.528 30.1112 41.5053 32.5066 41.3958C34.7224 41.2947 35.9243 40.925 36.7255 40.6132C37.7849 40.2002 38.5427 39.7108 39.3378 38.9157C40.0915 38.1826 40.6718 37.2885 41.0353 36.3034C41.3471 35.5022 41.7167 34.3003 41.8179 32.0846C41.9273 29.6891 41.9501 28.9705 41.9501 22.9054C41.9501 16.8404 41.9273 16.1218 41.8179 13.7263C41.7167 11.5105 41.3471 10.3087 41.0353 9.50742C40.6222 8.44806 40.1328 7.69018 39.3378 6.89514C38.6045 6.14155 37.712 5.56156 36.7255 5.19767C35.9243 4.88585 34.7224 4.51621 32.5066 4.41502ZM20.4261 29.908C22.0465 30.5825 23.8507 30.6735 25.5307 30.1656C27.2108 29.6576 28.6623 28.5821 29.6375 27.1228C30.6126 25.6634 31.0509 23.9108 30.8774 22.1643C30.7039 20.4178 29.9294 18.7856 28.6863 17.5466C27.8938 16.7546 26.9356 16.1482 25.8806 15.771C24.8256 15.3938 23.7001 15.2552 22.5851 15.3652C21.4701 15.4751 20.3934 15.831 19.4324 16.407C18.4714 16.9831 17.6502 17.765 17.0277 18.6966C16.4052 19.6281 15.997 20.6861 15.8324 21.7944C15.6679 22.9026 15.7512 24.0336 16.0762 25.1058C16.4012 26.178 16.9599 27.1648 17.7121 27.9952C18.4642 28.8256 19.3912 29.4788 20.4261 29.908ZM15.0714 14.6494C16.1556 13.5652 17.4428 12.7052 18.8594 12.1184C20.2759 11.5316 21.7942 11.2296 23.3275 11.2296C24.8608 11.2296 26.3791 11.5316 27.7956 12.1184C29.2122 12.7051 30.4993 13.5652 31.5835 14.6494C32.6677 15.7336 33.5278 17.0207 34.1145 18.4373C34.7013 19.8539 35.0033 21.3721 35.0033 22.9054C35.0033 24.4387 34.7013 25.957 34.1145 27.3736C33.5278 28.7901 32.6677 30.0773 31.5835 31.1615C29.3939 33.3511 26.4241 34.5812 23.3275 34.5812C20.2309 34.5812 17.2611 33.3511 15.0714 31.1615C12.8818 28.9718 11.6517 26.0021 11.6517 22.9054C11.6517 19.8088 12.8818 16.839 15.0714 14.6494ZM37.5928 12.9684C37.8615 12.715 38.0766 12.4102 38.2253 12.0722C38.3741 11.7341 38.4536 11.3696 38.4589 11.0003C38.4643 10.631 38.3955 10.2644 38.2567 9.9221C38.1178 9.57985 37.9117 9.26893 37.6506 9.00776C37.3894 8.74659 37.0785 8.54048 36.7362 8.40163C36.394 8.26278 36.0273 8.194 35.658 8.19939C35.2887 8.20477 34.9242 8.2842 34.5862 8.43297C34.2481 8.58174 33.9433 8.79683 33.6899 9.0655C33.197 9.58802 32.9271 10.2821 32.9376 11.0003C32.9481 11.7185 33.238 12.4044 33.746 12.9124C34.2539 13.4203 34.9398 13.7103 35.658 13.7207C36.3763 13.7312 37.0703 13.4613 37.5928 12.9684Z" />
</symbol>
<symbol id="dribble" viewBox="0 0 45 45">
    <path fill-rule="evenodd" clip-rule="evenodd" d="M22.2313 0.593323C10.0557 0.593323 0.177429 10.4716 0.177429 22.6472C0.177429 34.8227 10.0557 44.701 22.2313 44.701C34.3829 44.701 44.2851 34.8227 44.2851 22.6472C44.2851 10.4716 34.3829 0.593323 22.2313 0.593323ZM36.7978 10.7583C39.5132 14.0652 41.0157 18.2013 41.0561 22.4799C40.4349 22.3605 34.2157 21.0924 27.9487 21.8826C27.8035 21.5702 27.6841 21.2357 27.5407 20.9012C27.151 19.9812 26.7367 19.0718 26.2984 18.1739C33.2343 15.351 36.3917 11.2858 36.7978 10.7583ZM22.2313 3.8481C27.0151 3.8481 31.3928 5.63998 34.7174 8.58233C34.3829 9.06016 31.5362 12.8645 24.8391 15.3749C21.7516 9.70708 18.3333 5.06474 17.8058 4.34799C19.2564 4.00926 20.7416 3.84088 22.2313 3.84627V3.8481ZM14.2184 5.61609C14.7201 6.28689 18.0686 10.9513 21.2021 16.4997C12.3989 18.8447 4.62496 18.7969 3.78875 18.7969C5.00906 12.96 8.9567 8.1045 14.2184 5.61609ZM3.38259 22.6711V22.0977C4.19674 22.1216 13.3325 22.241 22.7348 19.4181C23.2843 20.4712 23.7861 21.5463 24.2639 22.6233C24.025 22.695 23.7622 22.7666 23.5233 22.8383C13.8122 25.9718 8.64427 34.5342 8.21422 35.2528C5.10354 31.8005 3.38222 27.3181 3.38259 22.6711ZM22.2313 41.4959C17.8775 41.4959 13.86 40.0127 10.6787 37.5262C11.0132 36.8315 14.8396 29.4636 25.4603 25.7568C25.5081 25.7329 25.5338 25.7329 25.5798 25.709C28.2354 32.5732 29.3106 38.3385 29.5991 39.9888C27.3257 40.9702 24.8391 41.4959 22.2313 41.4959ZM32.7326 38.2668C32.5415 37.1182 31.5362 31.6176 29.0716 24.847C34.9802 23.9153 40.1464 25.4462 40.7933 25.6612C39.9791 30.899 36.9651 35.42 32.7326 38.2668Z" />
</symbol>

<symbol id="asterisk" viewBox="0 0 13 13">
    <path d="M6.27541 12.1985V7.51585L2.96437 10.8269L2.19298 10.0555L5.50448 6.744H0.820862L0.820862 5.65309H5.50356L2.19207 2.34161L2.96346 1.57022L6.27541 4.88216V0.198547L7.36632 0.198547V4.88216L10.6783 1.57022L11.4496 2.34161L8.13816 5.65309H12.8209V6.744H8.13725L11.4487 10.0555L10.6774 10.8269L7.36632 7.51585V12.1985H6.27541Z" />
</symbol>

<symbol id="form_btn_decoration" viewBox="0 0 156 156">
  <path d="M111.135 18.6107L105.135 29.003M49.1347 125.998L43.1347 136.39M18.2449 43.5004L28.6372 49.5004M125.632 105.5L136.024 111.5M59.535 11.8174L62.6408 23.4085M91.6285 131.592L94.7343 143.183M11.4517 95.1001L23.0428 91.9943M131.226 63.0065L142.818 59.9006M77.1347 9.50037V21.5004M77.1347 133.5V145.5M9.13474 77.5004H21.1347M133.135 77.5003H145.135M29.0515 29.4172L37.5368 37.9025M116.733 117.098L125.218 125.584M29.0515 125.584L37.5368 117.098M116.733 37.9025L125.218 29.4172M43.1347 18.6107L49.1347 29.003M105.135 125.998L111.135 136.39M18.245 111.5L28.6373 105.5M125.632 49.5004L136.024 43.5004M11.4518 59.9007L23.0429 63.0065M131.226 91.9943L142.818 95.1001M59.5351 143.183L62.641 131.592M91.6285 23.4086L94.7343 11.8175" stroke-width="1.5"/>
</symbol>

<symbol id="close" viewBox="0 0 64 64">
    <path d="M24 40L40 24M40 40L24 24" stroke-width="3"/>
</symbol>

<symbol id="submit" viewBox="0 0 157 157">
    <path fill-rule="evenodd" clip-rule="evenodd" d="M100.618 78.3006C100.682 76.802 100.681 76.8019 100.68 76.8019L100.678 76.8018L100.674 76.8016L100.661 76.8012L100.624 76.8001C100.594 76.7992 100.552 76.7984 100.501 76.7979C100.413 76.797 100.296 76.7971 100.153 76.8002C99.8717 76.7924 99.4603 76.7698 98.9632 76.7098C97.9597 76.5887 96.6495 76.3203 95.3605 75.7438C94.0776 75.17 92.8507 74.3079 91.9411 73.01C91.039 71.7228 90.3785 69.9074 90.3785 67.3005H87.3785C87.3785 70.4437 88.1855 72.8784 89.4844 74.7318C90.055 75.5459 90.7068 76.2285 91.3992 76.8006H55.6177V79.8006H91.3991C90.7068 80.3727 90.055 81.0553 89.4844 81.8693C88.1855 83.7227 87.3785 86.1574 87.3785 89.3005H90.3785C90.3785 86.6937 91.039 84.8784 91.9411 83.5911C92.8507 82.2933 94.0776 81.4311 95.3605 80.8574C96.6495 80.2809 97.9597 80.0124 98.9631 79.8913C99.4603 79.8314 99.8717 79.8088 100.153 79.801C100.296 79.8041 100.413 79.8042 100.501 79.8033C100.552 79.8028 100.594 79.802 100.624 79.8011L100.661 79.8L100.674 79.7996L100.678 79.7994L100.68 79.7993C100.681 79.7993 100.682 79.7992 100.618 78.3006ZM100.618 78.3006L100.682 76.802L100.682 79.7992L100.618 78.3006Z" stroke-width="0" />
</symbol>

</svg>
