<?xml version="1.0" standalone="no"?>
<!DOCTYPE svg PUBLIC "-//W3C//DTD SVG 20010904//EN"
 "http://www.w3.org/TR/2001/REC-SVG-20010904/DTD/svg10.dtd">
<svg version="1.0" xmlns="http://www.w3.org/2000/svg"
 width="530.000000pt" height="530.000000pt" viewBox="0 0 530.000000 530.000000"
 preserveAspectRatio="xMidYMid meet">
<metadata>
Created by potrace 1.14, written by Peter Selinger 2001-2017
</metadata>
<g transform="translate(0.000000,530.000000) scale(0.100000,-0.100000)"
fill="#000000" stroke="none">
<path d="M2410 5200 c-30 -4 -82 -10 -115 -14 -33 -4 -67 -9 -75 -11 -8 -2
-28 -7 -45 -10 -52 -9 -115 -22 -145 -30 -3 -1 -18 -5 -35 -9 -50 -13 -268
-86 -300 -100 -16 -8 -55 -24 -85 -37 -310 -131 -653 -385 -891 -659 -64 -74
-189 -235 -189 -243 0 -2 -22 -37 -49 -78 -49 -75 -128 -223 -168 -314 -12
-27 -33 -76 -47 -107 -14 -32 -23 -58 -21 -58 2 0 -3 -17 -12 -37 -17 -41 -70
-221 -78 -266 -3 -15 -12 -58 -19 -95 -8 -37 -17 -92 -21 -122 -3 -30 -10 -89
-15 -130 -15 -134 -4 -501 20 -620 5 -25 12 -63 15 -85 4 -22 9 -51 11 -65 7
-35 53 -206 71 -260 53 -156 129 -328 207 -463 75 -129 86 -146 145 -228 175
-240 376 -439 606 -600 361 -254 774 -409 1211 -457 87 -9 472 -8 539 2 28 4
68 9 90 12 142 18 390 81 530 135 403 155 713 367 1010 690 28 30 64 72 80 93
17 21 44 56 60 77 61 79 73 97 141 209 76 125 146 264 195 387 31 78 105 312
114 361 2 15 9 50 15 77 14 67 16 80 25 150 4 33 10 69 12 80 12 51 10 457 -3
560 -40 323 -117 582 -253 855 -51 101 -164 296 -181 310 -3 3 -13 16 -21 30
-72 113 -266 327 -409 450 -35 30 -68 60 -74 65 -20 19 -180 132 -255 180 -71
45 -229 127 -336 175 -195 88 -447 158 -665 186 -25 3 -56 8 -70 11 -40 8
-460 11 -520 3z"/>
</g>
</svg>
